<svg width="501" height="438" viewBox="0 0 501 438" fill="none" xmlns="http://www.w3.org/2000/svg">
<path d="M388.383 0.923828C427.896 1.05311 460.359 12.9532 480.167 37.5029L481.101 38.6807C507.354 72.4539 505.617 123.222 481.326 178.146C457.426 232.188 411.741 290.112 349.738 339.488L346.773 341.833C283.261 391.713 215.084 423.073 156.214 433.477C97.3304 443.883 47.9112 433.307 21.6533 399.555C-7.35928 352.318 -0.787546 299.525 13.0967 258.463C20.0377 237.935 28.7987 220.363 35.8252 207.923C39.3381 201.703 42.417 196.768 44.6162 193.389C45.7155 191.7 46.595 190.4 47.1992 189.522C47.4576 189.147 47.6661 188.849 47.8193 188.632C72.8122 205.394 94.0273 225.377 109.545 250.416C96.9837 279.319 91.1143 298.581 89.1748 312.829C87.2257 327.149 89.2479 336.391 92.3984 345.235V345.236C97.3298 359.178 107.7 368.65 122.066 373.721C136.415 378.785 154.746 379.463 175.662 375.873C216.843 368.805 268.195 345.169 319.297 305.538L321.729 303.639C373.642 262.855 411.51 214.15 430.75 168.35C449.832 122.926 450.635 80.2332 428.434 51.0186L427.905 50.3311C412.096 29.9898 386.442 18.7762 355.602 16.3301C328.834 14.207 298.121 18.6846 266.443 29.5576C310.014 10.596 352.137 0.805298 388.383 0.923828ZM156.739 7.625C158.276 18.0263 162.926 29.4894 169.694 41.042C177.821 54.912 189.025 68.9575 201.651 81.5195C214.277 94.0814 228.338 105.174 242.185 113.129C253.376 119.559 264.46 123.955 274.551 125.402C264.58 126.913 253.658 131.274 242.632 137.608C228.785 145.563 214.724 156.656 202.098 169.218C189.472 181.78 178.267 195.826 170.141 209.696C163.372 221.249 158.723 232.711 157.186 243.112C155.62 232.908 150.955 221.575 144.185 210.104C136.025 196.28 124.785 182.204 112.136 169.582C99.4869 156.96 85.4166 145.777 71.5918 137.746C60.4021 131.246 49.3399 126.792 39.3037 125.334C49.221 123.81 60.1216 119.396 71.1455 112.992C84.9703 104.961 99.0406 93.7784 111.689 81.1562C124.338 68.534 135.579 54.4587 143.738 40.6348C150.509 29.1626 155.174 17.8298 156.739 7.625ZM344.353 68.0557C345.306 72.8179 347.466 77.9524 350.463 83.1113C354.52 90.0945 360.139 97.1696 366.479 103.499C372.818 109.828 379.891 115.426 386.865 119.444C391.931 122.363 396.971 124.462 401.655 125.391C397.034 126.34 392.074 128.42 387.088 131.293C380.114 135.311 373.04 140.909 366.701 147.238C360.362 153.568 354.743 160.643 350.686 167.626C347.688 172.785 345.529 177.92 344.575 182.683C343.608 178.011 341.447 172.944 338.456 167.834C334.383 160.875 328.746 153.785 322.396 147.425C316.045 141.065 308.967 135.421 302.003 131.364C296.932 128.41 291.895 126.283 287.228 125.347C291.832 124.388 296.79 122.281 301.78 119.374C308.744 115.317 315.822 109.673 322.173 103.313C328.524 96.9535 334.161 89.8634 338.233 82.9043C341.224 77.7942 343.385 72.727 344.353 68.0557Z" fill="#D71920" stroke="#D71920" stroke-width="1.10861"/>
</svg>
